<svg width="21" height="22" viewBox="0 0 21 22" fill="none" xmlns="http://www.w3.org/2000/svg">
<g id="Vector" clip-path="url(#clip0_56_11)">
<path id="Vector_2" d="M10.825 4.523C12.308 4.523 13.637 5.035 14.685 6.035L17.578 3.136C15.829 1.502 13.548 0.5 10.825 0.5C6.88201 0.5 3.46801 2.769 1.80701 6.073L5.17401 8.692C5.97001 6.299 8.19801 4.523 10.825 4.523Z" fill="#EB4335"/>
<path id="Vector_3" d="M20.5171 10.845C20.5171 10.121 20.4491 9.428 20.3321 8.761H10.8251V12.635H16.2651C16.1582 13.2639 15.9238 13.8642 15.5763 14.399C15.2287 14.9339 14.7753 15.392 14.2441 15.745L17.5141 18.289C19.4201 16.528 20.5171 13.924 20.5171 10.845Z" fill="#4285F4"/>
<path id="Vector_4" d="M10.825 20.73C13.549 20.73 15.843 19.834 17.515 18.289L14.244 15.745C13.342 16.353 12.182 16.707 10.825 16.707C8.19801 16.707 5.97001 14.932 5.17501 12.539L1.80701 15.157C3.46701 18.462 6.88101 20.731 10.825 20.731" fill="#34A853"/>
<path id="Vector_5" d="M1.80706 15.157L5.17406 12.539C4.96708 11.9186 4.8614 11.269 4.86106 10.615C4.86106 9.947 4.97206 9.3 5.17406 8.692L1.80706 6.073C1.09859 7.48214 0.730405 9.03778 0.732061 10.615V10.616C0.732061 12.25 1.12106 13.792 1.80706 15.157Z" fill="#FBBC05"/>
</g>
<defs>
<clipPath id="clip0_56_11">
<rect width="20" height="21" fill="white" transform="translate(0.702026 0.5)"/>
</clipPath>
</defs>
</svg>
