<svg width="32" height="32" viewBox="0 0 32 32" fill="none" xmlns="http://www.w3.org/2000/svg">
<path d="M16.0001 29.2174C23.2999 29.2174 29.2175 23.2998 29.2175 16C29.2175 8.70024 23.2999 2.78261 16.0001 2.78261C8.70034 2.78261 2.78271 8.70024 2.78271 16C2.78271 23.2998 8.70034 29.2174 16.0001 29.2174Z" fill="#CE82FF" stroke="#CE82FF" stroke-width="1.3913"/>
<path d="M10.4348 17.3913C11.2032 17.3913 11.8261 16.7684 11.8261 16C11.8261 15.2316 11.2032 14.6087 10.4348 14.6087C9.66637 14.6087 9.04346 15.2316 9.04346 16C9.04346 16.7684 9.66637 17.3913 10.4348 17.3913Z" fill="#084D6E"/>
<path d="M16.0002 17.3913C16.7686 17.3913 17.3915 16.7684 17.3915 16C17.3915 15.2316 16.7686 14.6087 16.0002 14.6087C15.2318 14.6087 14.6089 15.2316 14.6089 16C14.6089 16.7684 15.2318 17.3913 16.0002 17.3913Z" fill="#084D6E"/>
<path d="M21.5651 17.3913C22.3335 17.3913 22.9564 16.7684 22.9564 16C22.9564 15.2316 22.3335 14.6087 21.5651 14.6087C20.7967 14.6087 20.1738 15.2316 20.1738 16C20.1738 16.7684 20.7967 17.3913 21.5651 17.3913Z" fill="#084D6E"/>
</svg>
