<svg width="32" height="32" viewBox="0 0 32 32" fill="none" xmlns="http://www.w3.org/2000/svg">
<path d="M12.814 17.4379L18.8385 13.9596" stroke="#AFAFAF" stroke-width="2.08696"/>
<path d="M20.875 6.35743C20.0105 4.86016 18.096 4.34716 16.5987 5.21161C15.1015 6.07605 14.5885 7.9906 15.4529 9.48786L21.366 19.7296C22.2304 21.2268 24.1449 21.7398 25.6422 20.8754C27.1395 20.0109 27.6525 18.0964 26.788 16.5991L20.875 6.35743Z" fill="#1CB0F6"/>
<path d="M10.6343 12.2705C9.76982 10.7732 7.85527 10.2602 6.35801 11.1247C4.86075 11.9891 4.34774 13.9037 5.21219 15.4009L11.1252 25.6426C11.9897 27.1399 13.9042 27.6529 15.4015 26.7884C16.8988 25.924 17.4118 24.0094 16.5473 22.5122L10.6343 12.2705Z" fill="#1CB0F6"/>
<path d="M26.4839 6.33246C25.6194 4.8352 23.7049 4.3222 22.2076 5.18664C20.7104 6.05109 20.1974 7.96563 21.0618 9.4629L24.1922 14.885C25.0567 16.3822 26.9712 16.8952 28.4685 16.0308C29.9658 15.1663 30.4788 13.2518 29.6143 11.7545L26.4839 6.33246Z" fill="#1CB0F6"/>
<path d="M7.80809 17.1151C6.94364 15.6178 5.0291 15.1048 3.53184 15.9693C2.03457 16.8337 1.52157 18.7483 2.38602 20.2455L5.51645 25.6676C6.3809 27.1649 8.29544 27.6779 9.79271 26.8134C11.29 25.949 11.803 24.0344 10.9385 22.5372L7.80809 17.1151Z" fill="#1CB0F6"/>
<path opacity="0.3" d="M5.93212 18.0903C5.64398 17.5912 5.00579 17.4202 4.50671 17.7084C4.00762 17.9965 3.83662 18.6347 4.12477 19.1338L4.82042 20.3387C5.10857 20.8378 5.74675 21.0088 6.24584 20.7207C6.74492 20.4325 6.91592 19.7943 6.62778 19.2952L5.93212 18.0903Z" fill="#084D6E"/>
<path opacity="0.3" d="M25.4106 7.65555C25.1225 7.15646 24.4843 6.98546 23.9852 7.27361C23.4861 7.56176 23.3151 8.19994 23.6033 8.69903L24.2989 9.90393C24.5871 10.403 25.2253 10.574 25.7244 10.2859C26.2234 9.99772 26.3944 9.35954 26.1063 8.86045L25.4106 7.65555Z" fill="#084D6E"/>
<path opacity="0.3" d="M8.71484 13.2208C8.42669 12.7217 7.78851 12.5507 7.28942 12.8388C6.79033 13.127 6.61933 13.7652 6.90748 14.2642L7.95096 16.0716C8.23911 16.5707 8.87729 16.7417 9.37638 16.4535C9.87547 16.1654 10.0465 15.5272 9.75832 15.0281L8.71484 13.2208Z" fill="#084D6E"/>
<path opacity="0.3" d="M19.1499 7.65555C18.8617 7.15646 18.2236 6.98546 17.7245 7.27361C17.2254 7.56176 17.0544 8.19994 17.3425 8.69903L18.386 10.5064C18.6742 11.0055 19.3123 11.1765 19.8114 10.8883C20.3105 10.6002 20.4815 9.96199 20.1934 9.46291L19.1499 7.65555Z" fill="#084D6E"/>
</svg>
