<svg width="34" height="31" viewBox="0 0 34 31" fill="none" xmlns="http://www.w3.org/2000/svg">
<path fill-rule="evenodd" clip-rule="evenodd" d="M4.4586 7.07397L8.38286 10.1724C8.66022 10.3914 9.06007 10.3569 9.29582 10.0936L15.1955 3.50531C16.1815 2.4043 17.8732 2.31101 18.9743 3.29694C19.0252 3.34256 19.0744 3.39011 19.1217 3.4395L25.508 10.1074C25.7527 10.3629 26.1539 10.3837 26.4237 10.1551L30.0592 7.07397C30.7853 6.45868 31.8726 6.54844 32.4879 7.27445C32.8484 7.69989 32.9808 8.27352 32.8431 8.81393L28.4681 25.9871C28.2298 26.9227 27.3872 27.5775 26.4217 27.5775H7.79413C6.82864 27.5775 5.98609 26.9227 5.74774 25.9871L1.43044 9.04045C1.17056 8.02037 1.78684 6.98276 2.80692 6.72288C3.38211 6.57635 3.99274 6.70614 4.4586 7.07397Z" fill="#FFC800"/>
<path fill-rule="evenodd" clip-rule="evenodd" d="M6.88545 11.405L8.12988 12.5428C8.56026 12.9363 9.22813 12.9064 9.62162 12.476C9.63815 12.4579 9.65405 12.4393 9.66928 12.4201L12.7661 8.51965C13.2256 7.94092 14.0673 7.84426 14.646 8.30376C14.9385 8.53595 15.1206 8.87979 15.1483 9.25216L16.2462 23.9767C16.3011 24.7136 15.7482 25.3556 15.0113 25.4105C14.9782 25.413 14.945 25.4142 14.9118 25.4142H9.72246C9.10516 25.4142 8.56798 24.9919 8.42226 24.392L5.47078 12.242C5.35877 11.7809 5.64177 11.3163 6.10288 11.2042C6.3809 11.1367 6.67429 11.212 6.88545 11.405Z" fill="#FFDE00"/>
</svg>
