<svg width="34" height="33" viewBox="0 0 34 33" fill="none" xmlns="http://www.w3.org/2000/svg">
<path fill-rule="evenodd" clip-rule="evenodd" d="M5.97904 15.8054C5.97904 9.59068 11.0171 4.55267 17.2317 4.55267C23.4464 4.55267 28.4844 9.59068 28.4844 15.8054V16.1465C30.5158 17.1384 31.9151 19.2243 31.9151 21.6371C31.9151 25.0097 29.181 27.7437 25.8084 27.7437H8.51769C5.14506 27.7437 2.41103 25.0097 2.41103 21.6371C2.41103 19.1703 3.87368 17.0451 5.97904 16.0815V15.8054Z" fill="#9069CD"/>
<path fill-rule="evenodd" clip-rule="evenodd" d="M8.52814 21.3666C6.9131 21.0484 5.69498 19.6246 5.69498 17.9162C5.69498 16.1784 6.95543 14.735 8.61199 14.4503C9.25601 10.434 12.7372 7.36566 16.935 7.36566C21.1328 7.36566 24.614 10.4341 25.258 14.4504C26.9141 14.7354 28.1742 16.1786 28.1742 17.9162C28.1742 19.6243 26.9565 21.048 25.3418 21.3665C25.0214 25.7296 21.38 29.1701 16.935 29.1701C12.4901 29.1701 8.84861 25.7298 8.52814 21.3666Z" fill="#F3AD6D"/>
<path fill-rule="evenodd" clip-rule="evenodd" d="M14.0744 15.1875C14.0744 14.619 14.5353 14.1582 15.1037 14.1582C15.6721 14.1582 16.1329 14.619 16.1329 15.1875V17.932C16.1329 18.5004 15.6721 18.9612 15.1037 18.9612C14.5353 18.9612 14.0744 18.5004 14.0744 17.932V15.1875Z" fill="#BF8034"/>
<path fill-rule="evenodd" clip-rule="evenodd" d="M17.6425 15.1875C17.6425 14.619 18.1034 14.1582 18.6717 14.1582C19.2402 14.1582 19.7009 14.619 19.7009 15.1875V17.932C19.7009 18.5004 19.2402 18.9612 18.6717 18.9612C18.1034 18.9612 17.6425 18.5004 17.6425 17.932V15.1875Z" fill="#BF8034"/>
<path d="M14.0744 20.5089H19.8528C20.2106 20.5089 20.5007 20.7989 20.5007 21.1568V21.4928C20.5007 23.4463 18.9171 25.0299 16.9636 25.0299C15.0101 25.0299 13.4264 23.4463 13.4264 21.4928V21.1568C13.4264 20.7989 13.7165 20.5089 14.0744 20.5089Z" fill="white"/>
<path fill-rule="evenodd" clip-rule="evenodd" d="M19.5787 7.14637L20.0621 7.71803V9.65212L17.5593 12.2459L14.0467 14.0921L10.1392 14.7515H7.90024V13.5647L9.17348 10.9489L10.9297 8.68518L14.7494 6.79486H18.0422L19.5787 7.14637Z" fill="#9069CD"/>
<path d="M6.33478 15.1186H9.26939C12.9072 15.0938 18.6972 14.5766 20.5835 7.91912C20.68 7.52826 20.7728 7.07638 20.8619 6.56348" stroke="#9069CD" stroke-width="1.85712"/>
</svg>
